<mxfile host="65bd71144e">
    <diagram id="jhAxi1eD5Cb3eRxQy4g4" name="Página-1">
        <mxGraphModel dx="858" dy="813" grid="1" gridSize="10" guides="1" tooltips="1" connect="1" arrows="1" fold="1" page="1" pageScale="1" pageWidth="827" pageHeight="1169" math="0" shadow="0">
            <root>
                <mxCell id="0"/>
                <mxCell id="1" parent="0"/>
                <mxCell id="2" value="Staff" style="swimlane;whiteSpace=wrap;html=1;" vertex="1" parent="1">
                    <mxGeometry x="90" y="260" width="200" height="140" as="geometry"/>
                </mxCell>
                <mxCell id="27" value="id: Integer&lt;br&gt;nombre: char&lt;br&gt;rol: selección&amp;nbsp;&lt;br&gt;(mesero, barista, administrador)&lt;br&gt;telf: Integer&lt;br&gt;email: char&lt;br&gt;&lt;br&gt;" style="text;html=1;align=left;verticalAlign=middle;resizable=0;points=[];autosize=1;strokeColor=none;fillColor=none;" vertex="1" parent="2">
                    <mxGeometry x="5" y="30" width="190" height="110" as="geometry"/>
                </mxCell>
                <mxCell id="3" value="Bebida" style="swimlane;whiteSpace=wrap;html=1;" vertex="1" parent="1">
                    <mxGeometry x="581" y="27.5" width="180" height="185" as="geometry"/>
                </mxCell>
                <mxCell id="25" value="id: Integer&lt;br&gt;nombre: char&lt;br&gt;precio: float&lt;br&gt;taaño: selección &lt;br&gt;(pequeño, mediano, grande)&lt;br&gt;&lt;br&gt;&lt;br&gt;&lt;br&gt;pedido: M2O&amp;nbsp;" style="text;html=1;align=left;verticalAlign=middle;resizable=0;points=[];autosize=1;strokeColor=none;fillColor=none;" vertex="1" parent="3">
                    <mxGeometry x="5" y="32.5" width="170" height="140" as="geometry"/>
                </mxCell>
                <mxCell id="4" value="Comida" style="swimlane;whiteSpace=wrap;html=1;" vertex="1" parent="1">
                    <mxGeometry x="71" y="32.5" width="180" height="175" as="geometry"/>
                </mxCell>
                <mxCell id="24" value="id: integer&lt;br&gt;nombre: char&lt;br&gt;precio: float&lt;br&gt;tipo: selección &lt;br&gt;(picoteo, primero, postre)&lt;br&gt;&lt;br&gt;&lt;br&gt;&lt;br&gt;pedido: M2O&amp;nbsp;" style="text;html=1;align=left;verticalAlign=middle;resizable=0;points=[];autosize=1;strokeColor=none;fillColor=none;" vertex="1" parent="4">
                    <mxGeometry x="10" y="27.5" width="160" height="140" as="geometry"/>
                </mxCell>
                <mxCell id="5" value="Mesas" style="swimlane;whiteSpace=wrap;html=1;" vertex="1" parent="1">
                    <mxGeometry x="90" y="465" width="200" height="130" as="geometry"/>
                </mxCell>
                <mxCell id="30" value="nºmesa: Integer&lt;br&gt;capacidad: Integer&lt;br&gt;tipo: boolean &lt;br&gt;(juego o cafetería)&lt;br&gt;estado: selección&lt;br&gt;(disponible, ocupada, reservada)" style="text;html=1;align=left;verticalAlign=middle;resizable=0;points=[];autosize=1;strokeColor=none;fillColor=none;" vertex="1" parent="5">
                    <mxGeometry y="25" width="200" height="100" as="geometry"/>
                </mxCell>
                <mxCell id="18" style="edgeStyle=none;html=1;exitX=0.5;exitY=0;exitDx=0;exitDy=0;entryX=0.5;entryY=1;entryDx=0;entryDy=0;" edge="1" parent="1" source="6" target="12">
                    <mxGeometry relative="1" as="geometry"/>
                </mxCell>
                <mxCell id="23" style="edgeStyle=none;html=1;exitX=1;exitY=0.5;exitDx=0;exitDy=0;entryX=0;entryY=0.5;entryDx=0;entryDy=0;" edge="1" parent="1" source="6" target="9">
                    <mxGeometry relative="1" as="geometry"/>
                </mxCell>
                <mxCell id="35" style="edgeStyle=none;html=1;exitX=0.5;exitY=1;exitDx=0;exitDy=0;entryX=0.5;entryY=0;entryDx=0;entryDy=0;" edge="1" parent="1" source="6" target="7">
                    <mxGeometry relative="1" as="geometry"/>
                </mxCell>
                <mxCell id="6" value="Jugador" style="swimlane;whiteSpace=wrap;html=1;" vertex="1" parent="1">
                    <mxGeometry x="380" y="245" width="150" height="150" as="geometry"/>
                </mxCell>
                <mxCell id="28" value="id: Integer&lt;br&gt;nombre: char&lt;br&gt;alias: char&lt;br&gt;&lt;br&gt;torneo: boolean&amp;nbsp;&lt;br&gt;(participa / no)&lt;br&gt;reserva: M2M" style="text;html=1;align=left;verticalAlign=middle;resizable=0;points=[];autosize=1;strokeColor=none;fillColor=none;" vertex="1" parent="6">
                    <mxGeometry x="20" y="30" width="110" height="110" as="geometry"/>
                </mxCell>
                <mxCell id="20" style="edgeStyle=none;html=1;exitX=0;exitY=0.5;exitDx=0;exitDy=0;entryX=1;entryY=0.5;entryDx=0;entryDy=0;" edge="1" parent="1" source="7" target="5">
                    <mxGeometry relative="1" as="geometry"/>
                </mxCell>
                <mxCell id="7" value="Reserva" style="swimlane;whiteSpace=wrap;html=1;startSize=23;" vertex="1" parent="1">
                    <mxGeometry x="374.5" y="460" width="161" height="140" as="geometry"/>
                </mxCell>
                <mxCell id="31" value="id: Integer&lt;br&gt;hora: date&lt;br&gt;jugadores: Integer&lt;br&gt;&lt;br&gt;nºmesa: O2O&lt;br&gt;juego: M2M&lt;br&gt;jugador: O2O" style="text;html=1;align=left;verticalAlign=middle;resizable=0;points=[];autosize=1;strokeColor=none;fillColor=none;" vertex="1" parent="7">
                    <mxGeometry x="25.5" y="30" width="120" height="110" as="geometry"/>
                </mxCell>
                <mxCell id="33" style="edgeStyle=none;html=1;exitX=0.5;exitY=0;exitDx=0;exitDy=0;entryX=0.5;entryY=1;entryDx=0;entryDy=0;" edge="1" parent="1" source="8" target="9">
                    <mxGeometry relative="1" as="geometry"/>
                </mxCell>
                <mxCell id="36" style="edgeStyle=none;html=1;exitX=0;exitY=0.5;exitDx=0;exitDy=0;entryX=1;entryY=0.5;entryDx=0;entryDy=0;" edge="1" parent="1" source="8" target="7">
                    <mxGeometry relative="1" as="geometry"/>
                </mxCell>
                <mxCell id="8" value="Juego" style="swimlane;whiteSpace=wrap;html=1;" vertex="1" parent="1">
                    <mxGeometry x="585.75" y="460" width="205" height="140" as="geometry"/>
                </mxCell>
                <mxCell id="29" value="id: Integer&lt;br&gt;nombre: char&lt;br&gt;género: selección&lt;br&gt;(estrategia, familiar, simulación...)&lt;br&gt;Nº Jugadores: Integer&lt;br&gt;duración: Integer&lt;br&gt;unidades: Integer" style="text;html=1;align=left;verticalAlign=middle;resizable=0;points=[];autosize=1;strokeColor=none;fillColor=none;" vertex="1" parent="8">
                    <mxGeometry x="5" y="30" width="200" height="110" as="geometry"/>
                </mxCell>
                <mxCell id="9" value="Torneo" style="swimlane;whiteSpace=wrap;html=1;" vertex="1" parent="1">
                    <mxGeometry x="630" y="250" width="116.5" height="140" as="geometry"/>
                </mxCell>
                <mxCell id="32" value="nombre: char&lt;br&gt;fecha: date&lt;br&gt;premio: char&lt;br&gt;&lt;br&gt;jugadores: M2M&lt;br&gt;juego: O2M" style="text;html=1;align=left;verticalAlign=middle;resizable=0;points=[];autosize=1;strokeColor=none;fillColor=none;" vertex="1" parent="9">
                    <mxGeometry x="10" y="20" width="110" height="100" as="geometry"/>
                </mxCell>
                <mxCell id="14" style="edgeStyle=none;html=1;exitX=1;exitY=0.5;exitDx=0;exitDy=0;entryX=0;entryY=0.5;entryDx=0;entryDy=0;" edge="1" parent="1" source="12" target="3">
                    <mxGeometry relative="1" as="geometry"/>
                </mxCell>
                <mxCell id="15" style="edgeStyle=none;html=1;exitX=0;exitY=0.5;exitDx=0;exitDy=0;" edge="1" parent="1" source="12" target="4">
                    <mxGeometry relative="1" as="geometry">
                        <mxPoint x="269" y="220" as="sourcePoint"/>
                    </mxGeometry>
                </mxCell>
                <mxCell id="16" style="edgeStyle=none;html=1;exitX=0.5;exitY=1;exitDx=0;exitDy=0;entryX=0.5;entryY=0;entryDx=0;entryDy=0;" edge="1" parent="1" source="12" target="2">
                    <mxGeometry relative="1" as="geometry"/>
                </mxCell>
                <mxCell id="12" value="Pedido" style="swimlane;whiteSpace=wrap;html=1;" vertex="1" parent="1">
                    <mxGeometry x="380" y="35" width="151" height="170" as="geometry"/>
                </mxCell>
                <mxCell id="26" value="id: Integer&lt;br&gt;hora: date&lt;br&gt;&lt;br&gt;&lt;br&gt;staff: M2O&lt;br&gt;comidas: M2M&lt;br&gt;bebidas: M2M&lt;br&gt;Jugador: M2O" style="text;html=1;align=left;verticalAlign=middle;resizable=0;points=[];autosize=1;strokeColor=none;fillColor=none;" vertex="1" parent="12">
                    <mxGeometry x="25.5" y="30" width="100" height="130" as="geometry"/>
                </mxCell>
            </root>
        </mxGraphModel>
    </diagram>
</mxfile>